+ filenameToUse=/home/horvathandras/vatic/vatic/public/videouploads/DJI_0028_taposas_gabona_kotcse_20180710_napos_kalaszos_T4.avi
+ filenameNoDot=DJI_0028_taposas_gabona_kotcse_20180710_napos_kalaszos_T4
+ FullUploadPath=/home/horvathandras/vatic/vatic/public/videouploads/DJI_0028_taposas_gabona_kotcse_20180710_napos_kalaszos_T4.avi
+ VideoDataDir=/home/horvathandras/vatic/vatic/videos
+ AvailableObjectTypes='PozitívROI NegatívROI Túrás ~Friss ~1-2Hetes ~Régebbi ~Egyéb1 ~Egyéb2 ~Egyéb3 Rágás ~Friss ~1-2Hetes ~Régebbi ~Egyéb1 ~Egyéb2 ~Egyéb3 Törés ~Friss ~1-2Hetes ~Régebbi ~Egyéb1 ~Egyéb2 ~Egyéb3 Taposás ~Friss ~1-2Hetes ~Régebbi ~Egyéb1 ~Egyéb2 ~Egyéb3 EgészségesNövény Egyéb1 Egyéb2 Egyéb3 Egyéb4 Egyéb5 Bizonytalan Művelőút Gktaposás Vetőhiba Széldöntés Jégkár Belvíz Aszály Erózió EgyszikűGyom KétszikűGyom EgyébNövvédelmiPR'
++ dirname /home/horvathandras/vatic/vatic/vatic_publisher.sh
+ cd /home/horvathandras/vatic/vatic
+ touch /home/horvathandras/vatic/vatic/public/videouploads/DJI_0028_taposas_gabona_kotcse_20180710_napos_kalaszos_T4.avi
+ chmod 744 /home/horvathandras/vatic/vatic/public/videouploads/DJI_0028_taposas_gabona_kotcse_20180710_napos_kalaszos_T4.avi
+ mkdir /home/horvathandras/vatic/vatic/videos/DJI_0028_taposas_gabona_kotcse_20180710_napos_kalaszos_T4
+ turkic extract /home/horvathandras/vatic/vatic/public/videouploads/DJI_0028_taposas_gabona_kotcse_20180710_napos_kalaszos_T4.avi /home/horvathandras/vatic/vatic/videos/DJI_0028_taposas_gabona_kotcse_20180710_napos_kalaszos_T4 --no-resize
ffmpeg version 2.8.14-0ubuntu0.16.04.1 Copyright (c) 2000-2018 the FFmpeg developers
  built with gcc 5.4.0 (Ubuntu 5.4.0-6ubuntu1~16.04.9) 20160609
  configuration: --prefix=/usr --extra-version=0ubuntu0.16.04.1 --build-suffix=-ffmpeg --toolchain=hardened --libdir=/usr/lib/x86_64-linux-gnu --incdir=/usr/include/x86_64-linux-gnu --cc=cc --cxx=g++ --enable-gpl --enable-shared --disable-stripping --disable-decoder=libopenjpeg --disable-decoder=libschroedinger --enable-avresample --enable-avisynth --enable-gnutls --enable-ladspa --enable-libass --enable-libbluray --enable-libbs2b --enable-libcaca --enable-libcdio --enable-libflite --enable-libfontconfig --enable-libfreetype --enable-libfribidi --enable-libgme --enable-libgsm --enable-libmodplug --enable-libmp3lame --enable-libopenjpeg --enable-libopus --enable-libpulse --enable-librtmp --enable-libschroedinger --enable-libshine --enable-libsnappy --enable-libsoxr --enable-libspeex --enable-libssh --enable-libtheora --enable-libtwolame --enable-libvorbis --enable-libvpx --enable-libwavpack --enable-libwebp --enable-libx265 --enable-libxvid --enable-libzvbi --enable-openal --enable-opengl --enable-x11grab --enable-libdc1394 --enable-libiec61883 --enable-libzmq --enable-frei0r --enable-libx264 --enable-libopencv
  libavutil      54. 31.100 / 54. 31.100
  libavcodec     56. 60.100 / 56. 60.100
  libavformat    56. 40.101 / 56. 40.101
  libavdevice    56.  4.100 / 56.  4.100
  libavfilter     5. 40.101 /  5. 40.101
  libavresample   2.  1.  0 /  2.  1.  0
  libswscale      3.  1.101 /  3.  1.101
  libswresample   1.  2.101 /  1.  2.101
  libpostproc    53.  3.100 / 53.  3.100
Input #0, mov,mp4,m4a,3gp,3g2,mj2, from '/home/horvathandras/vatic/vatic/public/videouploads/DJI_0028_taposas_gabona_kotcse_20180710_napos_kalaszos_T4.avi':
  Metadata:
    major_brand     : qt  
    minor_version   : 537986816
    compatible_brands: qt  
    creation_time   : 2018-07-10 09:33:24
    location        : +46.714834+17.869252+30.100
    location-{    : +46.714834+17.869252+30.100
    comment         : DE=None, Mode=P, DSW=0001
  Duration: 00:00:11.12, start: 0.000000, bitrate: 102158 kb/s
    Stream #0:0(eng): Video: h264 (High) (avc1 / 0x31637661), yuv420p(tv, bt709), 4096x2160 [SAR 1:1 DAR 256:135], 101801 kb/s, 50 fps, 50 tbr, 50k tbn, 100 tbc (default)
    Metadata:
      creation_time   : 2018-07-10 09:33:24
      handler_name    : DJI.AVC
      encoder         : AVC encoder
    Stream #0:1(eng): Data: none (priv / 0x76697270), 325 kb/s
    Metadata:
      creation_time   : 2018-07-10 09:33:24
      handler_name    : DJI.Meta
Please use -b:a or -b:v, -b is ambiguous
[swscaler @ 0x12cbbe0] deprecated pixel format used, make sure you did set range correctly
Output #0, image2, to '/tmp/pyvision-ffmpeg-845498030/%d.jpg':
  Metadata:
    major_brand     : qt  
    minor_version   : 537986816
    compatible_brands: qt  
    comment         : DE=None, Mode=P, DSW=0001
    location        : +46.714834+17.869252+30.100
    location-{    : +46.714834+17.869252+30.100
    encoder         : Lavf56.40.101
    Stream #0:0(eng): Video: mjpeg, yuvj420p(pc), 4096x2160 [SAR 1:1 DAR 256:135], q=2-31, 10000 kb/s, 50 fps, 50 tbn, 50 tbc (default)
    Metadata:
      creation_time   : 2018-07-10 09:33:24
      handler_name    : DJI.AVC
      encoder         : Lavc56.60.100 mjpeg
Stream mapping:
  Stream #0:0 -> #0:0 (h264 (native) -> mjpeg (native))
Press [q] to stop, [?] for help
frame=    1 fps=0.0 q=18.1 size=N/A time=00:00:00.02 bitrate=N/A    frame=    5 fps=4.2 q=24.8 size=N/A time=00:00:00.10 bitrate=N/A    frame=   10 fps=5.6 q=24.8 size=N/A time=00:00:00.20 bitrate=N/A    frame=   15 fps=6.2 q=24.8 size=N/A time=00:00:00.30 bitrate=N/A    frame=   19 fps=6.5 q=24.8 size=N/A time=00:00:00.38 bitrate=N/A    frame=   24 fps=6.8 q=24.8 size=N/A time=00:00:00.48 bitrate=N/A    frame=   29 fps=7.0 q=24.8 size=N/A time=00:00:00.58 bitrate=N/A    frame=   34 fps=7.1 q=24.8 size=N/A time=00:00:00.68 bitrate=N/A    frame=   39 fps=7.2 q=24.8 size=N/A time=00:00:00.78 bitrate=N/A    frame=   44 fps=7.3 q=24.8 size=N/A time=00:00:00.88 bitrate=N/A    frame=   49 fps=7.4 q=24.8 size=N/A time=00:00:00.98 bitrate=N/A    frame=   54 fps=7.5 q=24.8 size=N/A time=00:00:01.08 bitrate=N/A    frame=   59 fps=7.5 q=24.8 size=N/A time=00:00:01.18 bitrate=N/A    frame=   64 fps=7.6 q=24.8 size=N/A time=00:00:01.28 bitrate=N/A    frame=   69 fps=7.6 q=24.8 size=N/A time=00:00:01.38 bitrate=N/A    frame=   74 fps=7.7 q=24.8 size=N/A time=00:00:01.48 bitrate=N/A    frame=   79 fps=7.7 q=24.8 size=N/A time=00:00:01.58 bitrate=N/A    frame=   84 fps=7.7 q=24.8 size=N/A time=00:00:01.68 bitrate=N/A    frame=   89 fps=7.8 q=24.8 size=N/A time=00:00:01.78 bitrate=N/A    frame=   94 fps=7.8 q=24.8 size=N/A time=00:00:01.88 bitrate=N/A    frame=   99 fps=7.8 q=24.8 size=N/A time=00:00:01.98 bitrate=N/A    frame=  104 fps=7.8 q=24.8 size=N/A time=00:00:02.08 bitrate=N/A    frame=  109 fps=7.9 q=24.8 size=N/A time=00:00:02.18 bitrate=N/A    frame=  114 fps=7.9 q=24.8 size=N/A time=00:00:02.28 bitrate=N/A    frame=  119 fps=7.9 q=24.8 size=N/A time=00:00:02.38 bitrate=N/A    frame=  124 fps=7.9 q=24.8 size=N/A time=00:00:02.48 bitrate=N/A    frame=  129 fps=7.9 q=24.8 size=N/A time=00:00:02.58 bitrate=N/A    frame=  134 fps=7.9 q=24.8 size=N/A time=00:00:02.68 bitrate=N/A    frame=  139 fps=7.9 q=24.8 size=N/A time=00:00:02.78 bitrate=N/A    frame=  144 fps=7.9 q=24.8 size=N/A time=00:00:02.88 bitrate=N/A    frame=  149 fps=7.9 q=24.8 size=N/A time=00:00:02.98 bitrate=N/A    frame=  153 fps=7.9 q=24.8 size=N/A time=00:00:03.06 bitrate=N/A    frame=  158 fps=7.9 q=24.8 size=N/A time=00:00:03.16 bitrate=N/A    frame=  163 fps=8.0 q=24.8 size=N/A time=00:00:03.26 bitrate=N/A    frame=  168 fps=8.0 q=24.8 size=N/A time=00:00:03.36 bitrate=N/A    frame=  173 fps=8.0 q=24.8 size=N/A time=00:00:03.46 bitrate=N/A    frame=  178 fps=8.0 q=24.8 size=N/A time=00:00:03.56 bitrate=N/A    frame=  183 fps=8.0 q=24.8 size=N/A time=00:00:03.66 bitrate=N/A    frame=  188 fps=8.0 q=24.8 size=N/A time=00:00:03.76 bitrate=N/A    frame=  193 fps=8.0 q=24.8 size=N/A time=00:00:03.86 bitrate=N/A    frame=  198 fps=8.0 q=24.8 size=N/A time=00:00:03.96 bitrate=N/A    frame=  203 fps=8.0 q=24.8 size=N/A time=00:00:04.06 bitrate=N/A    frame=  208 fps=8.0 q=24.8 size=N/A time=00:00:04.16 bitrate=N/A    frame=  213 fps=8.0 q=24.8 size=N/A time=00:00:04.26 bitrate=N/A    frame=  218 fps=8.0 q=24.8 size=N/A time=00:00:04.36 bitrate=N/A    frame=  223 fps=8.0 q=24.8 size=N/A time=00:00:04.46 bitrate=N/A    frame=  228 fps=8.0 q=24.8 size=N/A time=00:00:04.56 bitrate=N/A    frame=  233 fps=8.0 q=24.8 size=N/A time=00:00:04.66 bitrate=N/A    frame=  238 fps=8.0 q=24.8 size=N/A time=00:00:04.76 bitrate=N/A    frame=  242 fps=8.0 q=24.8 size=N/A time=00:00:04.84 bitrate=N/A    frame=  246 fps=8.0 q=24.8 size=N/A time=00:00:04.92 bitrate=N/A    frame=  250 fps=8.0 q=24.8 size=N/A time=00:00:05.00 bitrate=N/A    frame=  255 fps=8.0 q=24.8 size=N/A time=00:00:05.10 bitrate=N/A    frame=  260 fps=8.0 q=24.8 size=N/A time=00:00:05.20 bitrate=N/A    frame=  265 fps=8.0 q=24.8 size=N/A time=00:00:05.30 bitrate=N/A    frame=  270 fps=8.0 q=24.8 size=N/A time=00:00:05.40 bitrate=N/A    frame=  275 fps=8.0 q=24.8 size=N/A time=00:00:05.50 bitrate=N/A    frame=  280 fps=8.0 q=24.8 size=N/A time=00:00:05.60 bitrate=N/A    frame=  285 fps=8.0 q=24.8 size=N/A time=00:00:05.70 bitrate=N/A    frame=  290 fps=8.0 q=24.8 size=N/A time=00:00:05.80 bitrate=N/A    frame=  295 fps=8.0 q=24.8 size=N/A time=00:00:05.90 bitrate=N/A    frame=  300 fps=8.0 q=24.8 size=N/A time=00:00:06.00 bitrate=N/A    frame=  305 fps=8.0 q=24.8 size=N/A time=00:00:06.10 bitrate=N/A    frame=  310 fps=8.1 q=24.8 size=N/A time=00:00:06.20 bitrate=N/A    frame=  315 fps=8.1 q=24.8 size=N/A time=00:00:06.30 bitrate=N/A    frame=  320 fps=8.1 q=24.8 size=N/A time=00:00:06.40 bitrate=N/A    frame=  325 fps=8.1 q=24.8 size=N/A time=00:00:06.50 bitrate=N/A    frame=  330 fps=8.1 q=24.8 size=N/A time=00:00:06.60 bitrate=N/A    frame=  335 fps=8.1 q=24.8 size=N/A time=00:00:06.70 bitrate=N/A    frame=  340 fps=8.1 q=24.8 size=N/A time=00:00:06.80 bitrate=N/A    frame=  345 fps=8.1 q=24.8 size=N/A time=00:00:06.90 bitrate=N/A    frame=  350 fps=8.1 q=24.8 size=N/A time=00:00:07.00 bitrate=N/A    frame=  355 fps=8.1 q=24.8 size=N/A time=00:00:07.10 bitrate=N/A    frame=  360 fps=8.1 q=24.8 size=N/A time=00:00:07.20 bitrate=N/A    frame=  365 fps=8.1 q=24.8 size=N/A time=00:00:07.30 bitrate=N/A    frame=  370 fps=8.1 q=24.8 size=N/A time=00:00:07.40 bitrate=N/A    frame=  375 fps=8.1 q=24.8 size=N/A time=00:00:07.50 bitrate=N/A    frame=  380 fps=8.1 q=24.8 size=N/A time=00:00:07.60 bitrate=N/A    frame=  385 fps=8.1 q=24.8 size=N/A time=00:00:07.70 bitrate=N/A    frame=  390 fps=8.1 q=24.8 size=N/A time=00:00:07.80 bitrate=N/A    frame=  395 fps=8.1 q=24.8 size=N/A time=00:00:07.90 bitrate=N/A    frame=  400 fps=8.1 q=24.8 size=N/A time=00:00:08.00 bitrate=N/A    frame=  405 fps=8.1 q=24.8 size=N/A time=00:00:08.10 bitrate=N/A    frame=  410 fps=8.1 q=24.8 size=N/A time=00:00:08.20 bitrate=N/A    frame=  415 fps=8.1 q=24.8 size=N/A time=00:00:08.30 bitrate=N/A    frame=  420 fps=8.1 q=24.8 size=N/A time=00:00:08.40 bitrate=N/A    frame=  425 fps=8.1 q=24.8 size=N/A time=00:00:08.50 bitrate=N/A    frame=  430 fps=8.1 q=24.8 size=N/A time=00:00:08.60 bitrate=N/A    frame=  435 fps=8.1 q=24.8 size=N/A time=00:00:08.70 bitrate=N/A    frame=  440 fps=8.1 q=24.8 size=N/A time=00:00:08.80 bitrate=N/A    frame=  445 fps=8.1 q=24.8 size=N/A time=00:00:08.90 bitrate=N/A    frame=  450 fps=8.1 q=24.8 size=N/A time=00:00:09.00 bitrate=N/A    frame=  455 fps=8.1 q=24.8 size=N/A time=00:00:09.10 bitrate=N/A    frame=  460 fps=8.1 q=24.8 size=N/A time=00:00:09.20 bitrate=N/A    frame=  465 fps=8.1 q=24.8 size=N/A time=00:00:09.30 bitrate=N/A    frame=  470 fps=8.1 q=24.8 size=N/A time=00:00:09.40 bitrate=N/A    frame=  475 fps=8.1 q=24.8 size=N/A time=00:00:09.50 bitrate=N/A    frame=  480 fps=8.1 q=24.8 size=N/A time=00:00:09.60 bitrate=N/A    frame=  485 fps=8.1 q=24.8 size=N/A time=00:00:09.70 bitrate=N/A    frame=  490 fps=8.1 q=24.8 size=N/A time=00:00:09.80 bitrate=N/A    frame=  495 fps=8.1 q=24.8 size=N/A time=00:00:09.90 bitrate=N/A    frame=  500 fps=8.1 q=24.8 size=N/A time=00:00:10.00 bitrate=N/A    frame=  505 fps=8.1 q=24.8 size=N/A time=00:00:10.10 bitrate=N/A    frame=  510 fps=8.1 q=24.8 size=N/A time=00:00:10.20 bitrate=N/A    frame=  515 fps=8.1 q=24.8 size=N/A time=00:00:10.30 bitrate=N/A    frame=  520 fps=8.1 q=24.8 size=N/A time=00:00:10.40 bitrate=N/A    frame=  525 fps=8.1 q=24.8 size=N/A time=00:00:10.50 bitrate=N/A    frame=  530 fps=8.1 q=24.8 size=N/A time=00:00:10.60 bitrate=N/A    frame=  535 fps=8.1 q=24.8 size=N/A time=00:00:10.70 bitrate=N/A    frame=  540 fps=8.1 q=24.8 size=N/A time=00:00:10.80 bitrate=N/A    frame=  545 fps=8.1 q=24.8 size=N/A time=00:00:10.90 bitrate=N/A    frame=  550 fps=8.1 q=24.8 size=N/A time=00:00:11.00 bitrate=N/A    frame=  555 fps=8.1 q=24.8 size=N/A time=00:00:11.10 bitrate=N/A    frame=  556 fps=8.1 q=24.8 Lsize=N/A time=00:00:11.12 bitrate=N/A    
video:494762kB audio:0kB subtitle:0kB other streams:0kB global headers:0kB muxing overhead: unknown
+ turkic load DJI_0028_taposas_gabona_kotcse_20180710_napos_kalaszos_T4 /home/horvathandras/vatic/vatic/videos/DJI_0028_taposas_gabona_kotcse_20180710_napos_kalaszos_T4 $'Pozit\303\255vROI' $'Negat\303\255vROI' $'T\303\272r\303\241s' '~Friss' '~1-2Hetes' '~Régebbi' '~Egyéb1' '~Egyéb2' '~Egyéb3' $'R\303\241g\303\241s' '~Friss' '~1-2Hetes' '~Régebbi' '~Egyéb1' '~Egyéb2' '~Egyéb3' $'T\303\266r\303\251s' '~Friss' '~1-2Hetes' '~Régebbi' '~Egyéb1' '~Egyéb2' '~Egyéb3' $'Tapos\303\241s' '~Friss' '~1-2Hetes' '~Régebbi' '~Egyéb1' '~Egyéb2' '~Egyéb3' $'Eg\303\251szs\303\251gesN\303\266v\303\251ny' $'Egy\303\251b1' $'Egy\303\251b2' $'Egy\303\251b3' $'Egy\303\251b4' $'Egy\303\251b5' Bizonytalan $'M\305\261vel\305\221\303\272t' $'Gktapos\303\241s' $'Vet\305\221hiba' $'Sz\303\251ld\303\266nt\303\251s' $'J\303\251gk\303\241r' $'Belv\303\255z' $'Asz\303\241ly' $'Er\303\263zi\303\263' $'Egyszik\305\261Gyom' $'K\303\251tszik\305\261Gyom' $'Egy\303\251bN\303\266vv\303\251delmiPR' --offline --title '$filenameNoDot Video' --length 1000 --description 'vatic annotation'
+ turkic publish --offline
+ mkdir /home/horvathandras/vatic/vatic/public/videothumbnails/DJI_0028_taposas_gabona_kotcse_20180710_napos_kalaszos_T4
+ cp /home/horvathandras/vatic/vatic/videos/DJI_0028_taposas_gabona_kotcse_20180710_napos_kalaszos_T4/0/0/31.jpg /home/horvathandras/vatic/vatic/public/videothumbnails/DJI_0028_taposas_gabona_kotcse_20180710_napos_kalaszos_T4/thumb.jpg
